<?xml version="1.0" encoding="utf-8"?>
<!-- Generator: Adobe Illustrator 17.1.0, SVG Export Plug-In . SVG Version: 6.00 Build 0)  -->
<!DOCTYPE svg PUBLIC "-//W3C//DTD SVG 1.0//EN" "http://www.w3.org/TR/2001/REC-SVG-20010904/DTD/svg10.dtd" [
	<!ENTITY st0 "fill:#136BA2;">
	<!ENTITY st1 "fill:#FA930D;">
]>
<svg version="1.0" id="Layer_1" xmlns="http://www.w3.org/2000/svg" xmlns:xlink="http://www.w3.org/1999/xlink" x="0px" y="0px"
	 viewBox="0 0 422.36 297.64" style="enable-background:new 0 0 422.36 297.64;" xml:space="preserve">
<g>
	<g>
		<path style="&st0;" d="M343.196,132.793c-5.602-3.142-7.863-4.285-11.177-4.285c-3.065,0-4.543,1.571-4.543,3.999
			c0,7.284,17.548,5.284,17.548,22.281c0,9.283-5.117,14.854-13.806,14.854c-5.32,0-7.831-2.288-11.72-4.857v-10.426
			c5.602,4.571,7.863,6.285,12.09,6.285c3.259,0,4.547-1.714,4.547-4.572c0-7.995-17.436-4.997-17.436-22.564
			c0-8.428,3.489-13.997,12.519-13.997c4.347,0,7.058,1.142,11.978,3.857V132.793z"/>
		<path style="&st0;" d="M201.056,139.942h3.973c2.743,0,5.373-1.429,5.373-5.57c0-3.715-1.944-5.568-5.602-5.568h-3.744V139.942z
			 M207.659,119.947c8.001,0,11.517,6.711,11.517,13.997c0,5.284-2.174,9.284-6.632,11.855c-1.241,0.528-1.883,0.689-2.808,0.917
			l13.442,21.932h-9.46l-12.662-19.852v19.852h-8.546v-48.701H207.659z"/>
		<path style="&st0;" d="M243.507,131.516l-4.545,18.996h9.659L243.507,131.516z M263.911,168.649h-9.231l-3.199-9.711h-15.149
			l-2.859,9.711h-9.118l14.491-48.701h8.977L263.911,168.649z"/>
		<rect x="266.765" y="119.948" style="&st0;" width="8.545" height="48.701"/>
		<polygon style="&st0;" points="314.983,168.649 307.925,168.649 289.945,137.373 289.945,168.649 281.397,168.649 
			281.397,119.948 289.143,119.948 306.434,149.654 306.434,119.948 314.983,119.948 		"/>
		<path style="&st0;" d="M172.13,159.654h-3.145v-11.427h4.514c3.432,0,5.947,1.854,5.947,5.425
			C179.446,157.94,177.504,159.654,172.13,159.654 M180.216,141.8c3.317-2,5.374-5.571,5.374-9.712c0-2.159-0.423-4.514-1.492-6.573
			c-3.137,2.779-6.598,5.802-7.643,6.711c0.163,0.562,0.246,1.148,0.246,1.718c0,2.57-1.371,5.284-4.918,5.284h-2.799v-2.509v-7.916
			v-1.175l10.202-6.687c-1.465-0.621-3.221-0.995-5.342-0.995h-13.406v48.701h14.289c11.436,0,13.836-8.71,13.836-14.282
			C188.564,148.654,185.82,143.654,180.216,141.8"/>
	</g>
	<g>
		<path style="&st1;" d="M192.372,114.224c-0.538-0.335-6.789,3.555-10.718,6.294l-1.444,1l-10.055,6.75v7.48
			c2.155-1.468,3.892-2.845,5.136-4.092l7.523-6.444c0,0,3.762-3.38,5.735-5.356l0.735-0.685c0.55-0.496,0.924-0.833,0.924-1.298
			c0-0.024-0.002-0.051-0.005-0.076C190.181,117.534,192.609,114.372,192.372,114.224"/>
		<path style="&st1;" d="M123.992,152.25c-0.101-2.597-0.642-5.944,2.703-7.72c1.305-0.709,2.065-0.258,2.504,0.184
			C130.079,145.597,128.107,149.687,123.992,152.25 M95.348,181.861c-2.315-1.874-3.412-3.458-5.105-7.556
			c-2.865-6.93,1.103-9.072,8.293-13.151C97.679,168.534,97.082,183.599,95.348,181.861 M152.938,146.014l6.121-4.157v-7.489
			l-5.489,3.578c0,0-4.889,3.174-6.597,4.285c0.127-0.966,0.258-1.984,0.258-1.984c0.86-6.367,1.653-12.725,1.653-16.952
			c0-2.047-0.185-3.596-0.639-4.403c-0.322-0.573-0.813-0.942-1.418-1.068c-0.802-0.163-1.737,0.118-2.631,0.795
			c-2.805,1.953-4.198,7.667-4.198,17.363c0,3.136,0.152,6.704,0.442,10.679c-0.326,0.293-1.938,1.748-1.938,1.748
			c0.021-0.02-2.776,2.441-2.776,2.441c-0.003,0.002-0.073,0.095-0.12,0.154c-2.592,2.289-4.224,3.575-4.846,3.817
			c-0.773,0.306-1.453,0.373-2.064,0.316c3.519-2.597,6.391-8.155,6.391-11.459c0-0.379-0.038-0.73-0.119-1.041
			c-0.573-2.262-1.713-3.904-3.301-4.754c-1.554-0.83-3.435-0.863-5.59-0.096l-0.842,0.341c-3.881,1.757-15.687,8.392-19.349,10.461
			c0.433-5.178,2.558-28.789,3.151-41.242c0.385-8.044,0-3.056,0-4.618c0-5.85-7.349,0.003-11.417,4.071
			c-1.707,1.708-7.044,6.583-5.11,10.293c2.077,3.993,4.269,2.658,5.418,9.527c2.019,12.083,0.477,24.468,0.48,25.267
			c-0.663,0.31-5.726,2.694-5.726,2.694c-8.721,4.034-15.349,7.101-15.349,12.136c0,0.786,0.162,1.615,0.5,2.506
			c7.237,18.929,17.102,29.113,20.989,28.083c5.64-1.501,5.87-8.912,6.217-20.125c0.174-5.593,0.375-11.925,1.236-19.049
			c0.454-0.286,9.932-7.341,11.695-8.47c-0.845,1.719-0.838,3.38-0.838,4.275c0,2.229,0.319,4.066,0.774,5.014
			c0.761,1.595,1.438,2.785,3.179,3.57c2.212,1.056,4.13,1.349,7.9-0.131c1.694-0.666,4.596-2.677,7.822-5.382
			c0.642,1.101,3.438,5.914,3.438,5.914l2.561,4.364c1.155,2.053,2.989,2.636,5.032,1.592c1.553-0.778,2.578-1.459,2.884-2.461
			c0.064-0.209,0.091-0.414,0.091-0.617c0-0.674-0.301-1.312-0.586-1.823c-2.941-5.234-3.137-9.795-3.137-13.264
			c0-0.225,0-0.443,0.002-0.657C147.596,149.708,152.938,146.014,152.938,146.014"/>
	</g>
</g>
</svg>
