<svg xmlns="http://www.w3.org/2000/svg" viewBox="0 0 128 128" height="128" width="128" id="svg-16" x="128" y="256">
  <path fill="#B388FF" d="M0 0h128v128H0z"/>
  <path fill="#444"
        d="M58.4 24c4.2 5.9 23.9 10.2 38.9 4.6-4.2-14-17.1-23.2-31.1-21.1-11.7 1.8-20.8 11.2-23.7 22.9 7 3.2 14.5-3.8 15.9-6.4z"/>
  <path fill="#689F38"
        d="M72.7 101.3C56.3 100 48.8 89.4 48.8 89.4c-2.2 4.2-5.2 8.7-9.2 13.5l-.3.4-1.7 2c-.9 1.1-2 2.6-3.4 4.5-2.8 3.9-6.6 9.5-10.8 16.6l-.8 1.4h80.1c-2.5-9.8-5.1-20.3-7.3-30.2-8.9 3.4-16.5 4.3-22.7 3.7z"/>
  <path fill="#FFCC80"
        d="M101.8 51.3l-2.6-10.4c-.2-2.5-.5-4.9-.7-6.9-.2-1.9-.6-3.6-1.2-5.3-24.8 3.7-35-2.5-39.1-8.4-1.5 2.6-5.8 8.4-15.6 10.2-.1.2-.1.5-.1.7-.9-.3-1.9-.4-3-.2-4.1.6-6.9 4.7-6.3 9.1.3 2 1.2 3.8 2.6 5 .3.1 1.6.7 3.4 1.7.8.4 1.6 1 2.5 1.6 1.5 1.1 3.2 2.5 4.9 4.1 6.6 6.8 12.1 18.6 2.4 37 0 0 7.4 10.6 23.8 11.9 6.3.5 13.8-.3 22.8-3.6l-.5-2.1c-.3-1.4-4-22.1-4.2-29-.2-7.6.7-12.3 1.9-15.3h9zM81.1 40.5c0-.9.7-1.6 1.6-1.6.9 0 1.6.7 1.6 1.6 0 .9-.7 1.6-1.6 1.6-.9.1-1.6-.7-1.6-1.6zm-41.7 62.8s0 .1-.1.1l.3-.4c0 .1-.1.2-.2.3z"/>
  <circle fill="#444" cx="82.7" cy="40.5" r="2"/>
</svg>
